<?xml version="1.0" encoding="UTF-8" standalone="no"?>
<svg
   height="35"
   id="Layer_1"
   version="1.1"
   viewBox="0 0 35 35"
   width="35"
   xml:space="preserve"
   sodipodi:docname="211621_c_right_arrow_icon.svg"
   inkscape:version="1.4 (e7c3feb100, 2024-10-09)"
   xmlns:inkscape="http://www.inkscape.org/namespaces/inkscape"
   xmlns:sodipodi="http://sodipodi.sourceforge.net/DTD/sodipodi-0.dtd"
   xmlns="http://www.w3.org/2000/svg"
   xmlns:svg="http://www.w3.org/2000/svg"><defs
     id="defs1" /><sodipodi:namedview
     id="namedview1"
     pagecolor="#ffffff"
     bordercolor="#000000"
     borderopacity="0.25"
     inkscape:showpageshadow="2"
     inkscape:pageopacity="0.0"
     inkscape:pagecheckerboard="0"
     inkscape:deskcolor="#d1d1d1"
     inkscape:zoom="10.390233"
     inkscape:cx="12.319261"
     inkscape:cy="15.110344"
     inkscape:window-width="1290"
     inkscape:window-height="761"
     inkscape:window-x="0"
     inkscape:window-y="0"
     inkscape:window-maximized="1"
     inkscape:current-layer="Layer_1" /><path
     d="M 24.132102,4.8125037 34.105114,15.252839 C 34.701705,15.829543 35,16.615056 35,17.480115 c 0,0.865052 -0.298295,1.640626 -0.894886,2.227268 l -9.973012,10.480113 c -1.183239,1.2429 -3.112216,1.2429 -4.295455,0 -1.183238,-1.242892 -1.183238,-3.251413 0,-4.494313 L 24.629261,20.68182 H 3.0525572 C 1.3622156,20.68182 0,19.259942 0,17.5 0,15.740058 1.3622156,14.318179 3.042614,14.318179 H 24.619318 L 19.826704,9.3068169 c -1.183238,-1.2429003 -1.183238,-3.2514207 0,-4.4943132 1.193182,-1.2429003 3.112216,-1.2429003 4.305398,0 z"
     id="path1"
     style="stroke-width:0.0994322;fill:#f9f9f9" /></svg>
